Description

Poster: http://cdn.piczend.com/image/su3msimfelaevz7oox719ygi4.jpeg
Release date: 2001
Genre: Animation, Adventure, Comedy, Family, Fantasy
Plot: Monsters generate their city's power by scaring children, but they are terribly afraid themselves of being contaminated by children, so when one enters Monstropolis, top scarer Sulley finds his world disrupted.
--------------------------------
Runtime: 1 h 32 min
Rating: 8.0/10
Votes: 276,309
Writer(s)/Director(s): Pete Docter, Jill Culton/Pete Docter, David Silverman
Actors: Billy Crystal, John Goodman, Mary Gibbs, Steve Buscemi
Trailer: http://www.imdb.com/video/imdb/vi3892094745/

Screenshots: 
http://cdn.piczend.com/image/0ahsfofzigc1vm0v7ho9w8jul.jpeg 
http://cdn.piczend.com/image/2uwlizbj7uplpotwglrtbdq9r.jpeg 
http://cdn.piczend.com/image/qvqzf1rao2jnuske8vtmfptgx.jpeg 
http://cdn.piczend.com/image/ch1thjj2p87gqyvi78cqjhov0.jpeg

Mediainfo:
General
Complete name :	Monsters, Inc. (2001) BRRip 1080p [Zend]/Monsters, Inc. (2001) BRRip 1080p [Zend].mp4
Format :	MPEG-4
Format profile :	Base Media
Codec ID :	isom
File size :	1.22 GiB
Duration :	1h 32mn
Overall bit rate :	1 896 Kbps
Writing application :	Lavf53.21.1

Video
ID :	1
Format :	AVC
Format/Info :	Advanced Video Codec
Format profile :	Main@L4.0
Format settings, CABAC :	Yes
Format settings, ReFrames :	3 frames
Codec ID :	avc1
Codec ID/Info :	Advanced Video Coding
Duration :	1h 32mn
Bit rate :	1 500 Kbps
Width :	1 920 pixels
Height :	1 080 pixels
Display aspect ratio :	16:9
Frame rate mode :	Constant
Frame rate :	23.976 fps
Color space :	YUV
Chroma subsampling :	4:2:0
Bit depth :	8 bits
Scan type :	Progressive
Bits/(Pixel*Frame) :	0.030
Stream size :	952 MiB (76%)
Writing library :	x264 core 123 r2189 35cf912
Encoding settings :	cabac=1 / ref=3 / deblock=1:0:0 / analyse=0x1:0x111 / me=hex / subme=7 / psy=1 / psy_rd=1.00:0.00 / mixed_ref=0 / me_range=16 / chroma_me=1 / trellis=1 / 8x8dct=0 / cqm=0 / deadzone=21,11 / fast_pskip=1 / chroma_qp_offset=-2 / threads=6 / sliced_threads=0 / nr=0 / decimate=1 / interlaced=0 / bluray_compat=0 / constrained_intra=0 / bframes=3 / b_pyramid=0 / b_adapt=1 / b_bias=0 / direct=1 / weightb=0 / open_gop=1 / weightp=2 / keyint=250 / keyint_min=23 / scenecut=40 / intra_refresh=0 / rc_lookahead=40 / rc=abr / mbtree=1 / bitrate=1500 / ratetol=1.0 / qcomp=0.60 / qpmin=0 / qpmax=69 / qpstep=4 / ip_ratio=1.25 / aq=1:1.00

Audio
ID :	2
Format :	AC-3
Format/Info :	Audio Coding 3
Mode extension :	CM (complete main)
Format settings, Endianness :	Big
Codec ID :	ac-3
Duration :	1h 32mn
Bit rate mode :	Constant
Bit rate :	448 Kbps
Channel(s) :	6 channels
Channel positions :	Front: L C R, Side: L R, LFE
Sampling rate :	48.0 KHz
Bit depth :	16 bits
Compression mode :	Lossy
Delay relative to video :	42ms
Stream size :	295 MiB (24%)

Menu
00:00:00.000 :	00:00:00.000
00:01:33.093 :	00:01:33.093
00:03:07.604 :	00:03:07.604
00:04:51.124 :	00:04:51.124
00:07:16.936 :	00:07:16.936
00:09:11.509 :	00:09:11.509
00:10:43.601 :	00:10:43.601
00:11:53.796 :	00:11:53.796
00:17:25.795 :	00:17:25.795
00:20:06.080 :	00:20:06.080
00:22:03.781 :	00:22:03.781
00:25:48.422 :	00:25:48.422
00:28:34.963 :	00:28:34.963
00:31:06.489 :	00:31:06.489
00:34:49.963 :	00:34:49.963
00:36:55.630 :	00:36:55.630
00:38:50.286 :	00:38:50.286
00:40:27.884 :	00:40:27.884
00:43:34.278 :	00:43:34.278
00:45:29.727 :	00:45:29.727
00:48:07.426 :	00:48:07.426
00:50:37.159 :	00:50:37.159
00:54:41.278 :	00:54:41.278
00:57:29.446 :	00:57:29.446
01:03:42.026 :	01:03:42.026
01:06:25.022 :	01:06:25.022
01:07:26.375 :	01:07:26.375
01:13:52.136 :	01:13:52.136
01:17:49.581 :	01:17:49.581
01:21:24.921 :	01:21:24.921
01:24:07.959 :	01:24:07.959
01:25:10.230 :	01:25:10.230
